<?xml version="1.0" encoding="utf-8"?>
<!-- Generator: Adobe Illustrator 23.0.3, SVG Export Plug-In . SVG Version: 6.00 Build 0)  -->
<svg version="1.1" id="svg3316" xmlns:svg="http://www.w3.org/2000/svg"
	 xmlns="http://www.w3.org/2000/svg" xmlns:xlink="http://www.w3.org/1999/xlink" x="0px" y="0px" viewBox="0 0 40 40"
	 style="enable-background:new 0 0 40 40;" xml:space="preserve">
<style type="text/css">
	.st0{fill-rule:evenodd;clip-rule:evenodd;}
</style>
<g id="use407" transform="matrix(1.2499999,0,0,1.2499999,-103.07788,95.07989)">
</g>
<g id="use409" transform="matrix(1.2499999,0,0,1.2499999,-103.07788,95.07989)">
</g>
<g id="use411" transform="matrix(1.2499999,0,0,1.2499999,-103.07788,95.07989)">
</g>
<g id="use413" transform="matrix(1.2499999,0,0,1.2499999,-103.07788,95.07989)">
</g>
<g id="use415" transform="matrix(1.2499999,0,0,1.2499999,-103.07788,95.07989)">
</g>
<g id="use417" transform="matrix(1.2499999,0,0,1.2499999,-103.07788,95.07989)">
</g>
<g id="use419" transform="matrix(1.2499999,0,0,1.2499999,-103.07788,95.07989)">
</g>
<g id="use421" transform="matrix(1.2499999,0,0,1.2499999,-103.07788,95.07989)">
</g>
<g id="use425" transform="matrix(1.2499999,0,0,1.2499999,-103.07788,95.07989)">
</g>
<g id="use429" transform="matrix(1.2499999,0,0,1.2499999,-103.07788,95.07989)">
</g>
<g id="use431" transform="matrix(1.2499999,0,0,1.2499999,-103.07788,95.07989)">
</g>
<g id="use433" transform="matrix(1.2499999,0,0,1.2499999,-103.07788,95.07989)">
</g>
<g id="use435" transform="matrix(1.2499999,0,0,1.2499999,-103.07788,95.07989)">
</g>
<g id="use443" transform="matrix(1.2499999,0,0,1.2499999,-103.07788,95.07989)">
</g>
<g id="use445" transform="matrix(1.2499999,0,0,1.2499999,-103.07788,95.07989)">
</g>
<g id="use447" transform="matrix(1.2499999,0,0,1.2499999,-103.07788,95.07989)">
</g>
<g id="use449" transform="matrix(1.2499999,0,0,1.2499999,-103.07788,95.07989)">
</g>
<g id="use451" transform="matrix(1.2499999,0,0,1.2499999,-103.07788,95.07989)">
</g>
<g id="use453" transform="matrix(1.2499999,0,0,1.2499999,-103.07788,95.07989)">
</g>
<g id="use455" transform="matrix(1.2499999,0,0,1.2499999,-103.07788,95.07989)">
</g>
<g id="use457" transform="matrix(1.2499999,0,0,1.2499999,-103.07788,95.07989)">
</g>
<g id="use459" transform="matrix(1.2499999,0,0,1.2499999,-103.07788,95.07989)">
</g>
<g id="use461" transform="matrix(1.2499999,0,0,1.2499999,-103.07788,95.07989)">
</g>
<g id="use469" transform="matrix(1.2499999,0,0,1.2499999,-103.07788,95.07989)">
</g>
<g id="use471" transform="matrix(1.2499999,0,0,1.2499999,-103.07788,95.07989)">
</g>
<g id="use473" transform="matrix(1.2499999,0,0,1.2499999,-103.07788,95.07989)">
</g>
<g id="use475" transform="matrix(1.2499999,0,0,1.2499999,-103.07788,95.07989)">
</g>
<g id="use477" transform="matrix(1.2499999,0,0,1.2499999,-103.07788,95.07989)">
</g>
<g id="use485" transform="matrix(1.2499999,0,0,1.2499999,-103.07788,95.07989)">
</g>
<g id="use487" transform="matrix(1.2499999,0,0,1.2499999,-103.07788,95.07989)">
</g>
<g id="use489" transform="matrix(1.2499999,0,0,1.2499999,-103.07788,95.07989)">
</g>
<g id="use491" transform="matrix(1.2499999,0,0,1.2499999,-103.07788,95.07989)">
</g>
<g id="use493" transform="matrix(1.2499999,0,0,1.2499999,-103.07788,95.07989)">
</g>
<g id="use495" transform="matrix(1.2499999,0,0,1.2499999,-103.07788,95.07989)">
</g>
<g id="use497" transform="matrix(1.2499999,0,0,1.2499999,-103.07788,95.07989)">
</g>
<g id="use499" transform="matrix(1.2499999,0,0,1.2499999,-103.07788,95.07989)">
</g>
<g id="use501" transform="matrix(1.2499999,0,0,1.2499999,-103.07788,95.07989)">
</g>
<g id="use503" transform="matrix(1.2499999,0,0,1.2499999,-103.07788,95.07989)">
</g>
<g id="use505" transform="matrix(1.2499999,0,0,1.2499999,-103.07788,95.07989)">
</g>
<g id="use507" transform="matrix(1.2499999,0,0,1.2499999,-103.07788,95.07989)">
</g>
<g id="use511" transform="matrix(1.2499999,0,0,1.2499999,-103.07788,95.07989)">
</g>
<g id="use515" transform="matrix(1.2499999,0,0,1.2499999,-103.07788,95.07989)">
</g>
<g id="use517" transform="matrix(1.2499999,0,0,1.2499999,-103.07788,95.07989)">
</g>
<g id="use519" transform="matrix(1.2499999,0,0,1.2499999,-103.07788,95.07989)">
</g>
<g id="use521" transform="matrix(1.2499999,0,0,1.2499999,-103.07788,95.07989)">
</g>
<path id="path523" class="st0" d="M37.7,2.4H2.3v35.2h35.4V2.4z M3.8,23.3c0-1.2,1-2.1,2.1-2.1c1.2,0,2.1,1,2.1,2.1s-1,2.1-2.1,2.1
	C4.7,25.4,3.8,24.5,3.8,23.3z M5.9,30.7c1.2,0,2.1-1,2.1-2.1c0-1.2-1-2.1-2.1-2.1c-1.2,0-2.1,1-2.1,2.1C3.8,29.7,4.7,30.7,5.9,30.7z
	 M3.8,33.8c0-1.2,1-2.1,2.1-2.1c1.2,0,2.1,1,2.1,2.1c0,1.2-1,2.1-2.1,2.1C4.7,35.9,3.8,35,3.8,33.8z M16.4,25.4c1.2,0,2.1-1,2.1-2.1
	s-1-2.1-2.1-2.1c-1.2,0-2.1,1-2.1,2.1S15.3,25.4,16.4,25.4z M14.3,33.8c0-1.2,1-2.1,2.1-2.1c1.2,0,2.1,1,2.1,2.1
	c0,1.2-1,2.1-2.1,2.1C15.3,35.9,14.3,35,14.3,33.8z M23.6,25.4c1.2,0,2.1-1,2.1-2.1s-1-2.1-2.1-2.1c-1.2,0-2.1,1-2.1,2.1
	S22.4,25.4,23.6,25.4z M21.4,28.6c0-1.2,1-2.1,2.1-2.1c1.2,0,2.1,1,2.1,2.1c0,1.2-1,2.1-2.1,2.1C22.4,30.7,21.4,29.7,21.4,28.6z
	 M28.8,30.7c1.2,0,2.1-1,2.1-2.1c0-1.2-1-2.1-2.1-2.1s-2.1,1-2.1,2.1C26.7,29.7,27.7,30.7,28.8,30.7z M26.7,33.8
	c0-1.2,1-2.1,2.1-2.1s2.1,1,2.1,2.1c0,1.2-1,2.1-2.1,2.1S26.7,35,26.7,33.8z M34.1,30.7c1.2,0,2.1-1,2.1-2.1c0-1.2-1-2.1-2.1-2.1
	c-1.2,0-2.1,1-2.1,2.1C32,29.7,32.9,30.7,34.1,30.7z M32,33.8c0-1.2,1-2.1,2.1-2.1c1.2,0,2.1,1,2.1,2.1c0,1.2-1,2.1-2.1,2.1
	C32.9,35.9,32,35,32,33.8z M23.6,35.9c1.2,0,2.1-1,2.1-2.1c0-1.2-1-2.1-2.1-2.1c-1.2,0-2.1,1-2.1,2.1C21.4,35,22.4,35.9,23.6,35.9z
	 M3.8,6.2c0-1.2,1-2.1,2.1-2.1C7.1,4.1,8,5,8,6.2s-1,2.1-2.1,2.1C4.7,8.3,3.8,7.4,3.8,6.2z M23.6,13.6c1.2,0,2.1-1,2.1-2.1
	s-1-2.1-2.1-2.1c-1.2,0-2.1,1-2.1,2.1S22.4,13.6,23.6,13.6z M21.4,16.7c0-1.2,1-2.1,2.1-2.1c1.2,0,2.1,1,2.1,2.1s-1,2.1-2.1,2.1
	C22.4,18.8,21.4,17.9,21.4,16.7z M28.8,13.6c1.2,0,2.1-1,2.1-2.1s-1-2.1-2.1-2.1s-2.1,1-2.1,2.1S27.7,13.6,28.8,13.6z M26.7,16.7
	c0-1.2,1-2.1,2.1-2.1s2.1,1,2.1,2.1s-1,2.1-2.1,2.1S26.7,17.9,26.7,16.7z M34.1,8.3c1.2,0,2.1-1,2.1-2.1s-1-2.1-2.1-2.1
	c-1.2,0-2.1,1-2.1,2.1S32.9,8.3,34.1,8.3z M32,11.4c0-1.2,1-2.1,2.1-2.1c1.2,0,2.1,1,2.1,2.1s-1,2.1-2.1,2.1
	C32.9,13.6,32,12.6,32,11.4z M34.1,18.8c1.2,0,2.1-1,2.1-2.1s-1-2.1-2.1-2.1c-1.2,0-2.1,1-2.1,2.1S32.9,18.8,34.1,18.8z M14.3,11.4
	c0-1.2,1-2.1,2.1-2.1c1.2,0,2.1,1,2.1,2.1s-1,2.1-2.1,2.1C15.3,13.6,14.3,12.6,14.3,11.4z M16.4,18.8c1.2,0,2.1-1,2.1-2.1
	s-1-2.1-2.1-2.1c-1.2,0-2.1,1-2.1,2.1S15.3,18.8,16.4,18.8z M3.8,11.4c0-1.2,1-2.1,2.1-2.1c1.2,0,2.1,1,2.1,2.1s-1,2.1-2.1,2.1
	C4.7,13.6,3.8,12.6,3.8,11.4z M5.9,18.8c1.2,0,2.1-1,2.1-2.1s-1-2.1-2.1-2.1c-1.2,0-2.1,1-2.1,2.1S4.7,18.8,5.9,18.8z M9,28.6
	c0-1.2,1-2.1,2.1-2.1c1.2,0,2.1,1,2.1,2.1c0,1.2-1,2.1-2.1,2.1C10,30.7,9,29.7,9,28.6z M11.2,13.6c1.2,0,2.1-1,2.1-2.1
	s-1-2.1-2.1-2.1c-1.2,0-2.1,1-2.1,2.1S10,13.6,11.2,13.6"/>
</svg>
